<?xml version="1.0" encoding="UTF-8"?>
<svg version="1.1" xmlns="http://www.w3.org/2000/svg" width="250" height="282">
<path d="M0 0 C2.57939866 1.39647789 5.10067847 2.88175537 7.625 4.375 C9.39253054 5.39444143 11.16081765 6.41257173 12.9296875 7.4296875 C17.01382802 9.78984684 21.08475708 12.1712009 25.1484375 14.56640625 C31.57673712 18.35399071 38.03430852 22.08919387 44.5 25.8125 C46.11237549 26.74219604 46.11237549 26.74219604 47.75732422 27.69067383 C53.2834713 30.87655325 58.81239801 34.0575416 64.34375 37.234375 C69.75997713 40.34647223 75.16841547 43.47171407 80.57128906 46.60693359 C82.58107889 47.77058069 84.59339135 48.92988349 86.60839844 50.08447266 C89.37131124 51.66896058 92.12410811 53.26975738 94.875 54.875 C95.67856934 55.33092529 96.48213867 55.78685059 97.31005859 56.2565918 C104.11088349 60.26607705 109.00951053 64.79015576 111.625 72.375 C111.88226891 75.0137682 111.88226891 75.0137682 111.89242554 77.89570618 C111.90522049 79.54205551 111.90522049 79.54205551 111.91827393 81.22166443 C111.91691437 83.01326744 111.91691437 83.01326744 111.91552734 84.84106445 C111.92224457 86.10666199 111.92896179 87.37225952 111.93588257 88.6762085 C111.95351894 92.14123452 111.95823698 95.6061617 111.95951414 99.07122827 C111.9609378 101.23873621 111.96521149 103.4062192 111.97050858 105.57372093 C111.98900201 113.1431576 111.99718017 120.71252391 111.99560547 128.28198242 C111.99440469 135.32514932 112.01549597 142.36800947 112.0470928 149.41109878 C112.0732927 155.4681893 112.08397119 161.52517987 112.08269465 167.58232659 C112.08218604 171.19543417 112.08781244 174.8082691 112.10905075 178.42131996 C112.13211311 182.45467527 112.12288968 186.48734867 112.11083984 190.52075195 C112.12207886 191.70908127 112.13331787 192.89741058 112.14489746 194.12174988 C112.08562021 201.93702508 111.03255487 207.2886378 105.90185547 213.44140625 C100.25840514 218.17233151 94.16963174 221.79096281 87.75 225.375 C86.01331793 226.36049816 84.27664386 227.34601075 82.54046631 228.33239746 C80.750208 229.34806426 78.9577933 230.35984023 77.16503906 231.37109375 C71.62860147 234.4988878 66.12898476 237.6905756 60.625 240.875 C58.46111676 242.12400853 56.29705371 243.37270559 54.1328125 244.62109375 C52.5245459 245.54897705 52.5245459 245.54897705 50.88378906 246.49560547 C47.60800434 248.38480166 44.33144107 250.27264109 41.0546875 252.16015625 C39.97034424 252.78510986 38.88600098 253.41006348 37.76879883 254.05395508 C35.6050654 255.30074001 33.44084688 256.54668349 31.27612305 257.79174805 C25.79775479 260.94742484 20.33760617 264.12994364 14.90234375 267.359375 C13.81646973 268.00189209 12.7305957 268.64440918 11.61181641 269.30639648 C9.55412859 270.52578463 7.50016119 271.75148161 5.45068359 272.98461914 C-2.45152481 277.65898097 -10.10837787 281.22549581 -19.48510742 278.83764648 C-24.68352988 277.13119643 -29.17181103 275.00329777 -33.8125 272.125 C-35.30121775 271.22642896 -36.79086396 270.32939503 -38.28125 269.43359375 C-39.49554688 268.70052002 -39.49554688 268.70052002 -40.734375 267.95263672 C-45.7254023 264.97075632 -50.772474 262.08550558 -55.8125 259.1875 C-58.06124916 257.89201604 -60.30994643 256.59644197 -62.55859375 255.30078125 C-63.68765137 254.65061035 -64.81670898 254.00043945 -65.97998047 253.33056641 C-72.51753385 249.56486796 -79.05208253 245.79395325 -85.58544922 242.02099609 C-90.61457512 239.1174968 -95.64567116 236.21762756 -100.68521118 233.33224487 C-102.45932545 232.31622816 -104.23269919 231.29893072 -106.00585938 230.28125 C-108.22315314 229.00917708 -110.44181075 227.73947715 -112.66210938 226.47265625 C-134.79254725 213.76213035 -134.79254725 213.76213035 -138.375 203.375 C-138.63226891 200.7362318 -138.63226891 200.7362318 -138.64242554 197.85429382 C-138.65095551 196.7567276 -138.65948547 195.65916138 -138.66827393 194.52833557 C-138.66736755 193.33393356 -138.66646118 192.13953156 -138.66552734 190.90893555 C-138.67224457 189.64333801 -138.67896179 188.37774048 -138.68588257 187.0737915 C-138.70351894 183.60876548 -138.70823698 180.1438383 -138.70951414 176.67877173 C-138.7109378 174.51126379 -138.71521149 172.3437808 -138.72050858 170.17627907 C-138.73900201 162.6068424 -138.74718017 155.03747609 -138.74560547 147.46801758 C-138.74440469 140.42485068 -138.76549597 133.38199053 -138.7970928 126.33890122 C-138.8232927 120.2818107 -138.83397119 114.22482013 -138.83269465 108.16767341 C-138.83218604 104.55456583 -138.83781244 100.9417309 -138.85905075 97.32868004 C-138.88211311 93.29532473 -138.87288968 89.26265133 -138.86083984 85.22924805 C-138.87207886 84.04091873 -138.88331787 82.85258942 -138.89489746 81.62825012 C-138.83853318 74.19702891 -138.02082332 68.32842087 -132.8493557 62.72063732 C-127.84171782 57.96246192 -121.54004738 54.79519209 -115.5625 51.4375 C-113.81912455 50.44522306 -112.07575558 49.45293448 -110.33279419 48.45993042 C-108.53352174 47.4360303 -106.73247255 46.41531199 -104.93115234 45.39501953 C-99.39354116 42.25452365 -93.88602119 39.0618389 -88.375 35.875 C-86.20847173 34.62476015 -84.04180466 33.37476078 -81.875 32.125 C-80.8025 31.50625 -79.73 30.8875 -78.625 30.25 C-73.75 27.4375 -73.75 27.4375 -68.875 24.625 C-67.80064697 24.00512207 -66.72629395 23.38524414 -65.61938477 22.74658203 C-63.4716418 21.50761766 -61.32369545 20.26900576 -59.17553711 19.03076172 C-54.08320563 16.09485895 -48.99308305 13.15530245 -43.9100647 10.20330811 C-41.50065992 8.80431947 -39.0900991 7.40732971 -36.67944336 6.01049805 C-34.97201018 5.02001929 -33.26626028 4.0266406 -31.56054688 3.03320312 C-30.53123047 2.43701172 -29.50191406 1.84082031 -28.44140625 1.2265625 C-27.53334229 0.69885254 -26.62527832 0.17114258 -25.68969727 -0.37255859 C-17.71757177 -4.68613351 -7.95459075 -3.88457315 0 0 Z " fill="#659AD2" transform="translate(138.375,2.625)"/>
<path d="M0 0 C3.17391474 3.17391474 3.1279582 5.99620138 3.14717102 10.28019714 C3.15790398 11.92242249 3.15790398 11.92242249 3.16885376 13.5978241 C3.17154266 14.79941666 3.17423157 16.00100922 3.17700195 17.23901367 C3.18357315 18.50431915 3.19014435 19.76962463 3.19691467 21.07327271 C3.21793907 25.27149186 3.22831706 29.4697113 3.23828125 33.66796875 C3.24232972 35.11496817 3.24644667 36.56196741 3.25063133 38.00896645 C3.26968121 44.8091777 3.2839114 51.60937812 3.2922433 58.40961093 C3.30200862 66.24966864 3.32831027 74.08944349 3.36874419 81.92940158 C3.39894884 87.99493207 3.41371637 94.0603817 3.41702431 100.12598592 C3.4193703 103.74584815 3.42827097 107.36540814 3.45348549 110.98518944 C3.48119363 115.0283105 3.47692186 119.07080357 3.4699707 123.11401367 C3.48918579 124.90122078 3.48918579 124.90122078 3.50878906 126.72453308 C3.45976445 134.55368179 2.41667636 139.90269925 -2.72314453 146.06640625 C-8.36659486 150.79733151 -14.45536826 154.41596281 -20.875 158 C-22.61168207 158.98549816 -24.34835614 159.97101075 -26.08453369 160.95739746 C-27.874792 161.97306426 -29.6672067 162.98484023 -31.45996094 163.99609375 C-36.99639853 167.1238878 -42.49601524 170.3155756 -48 173.5 C-50.16388324 174.74900853 -52.32794629 175.99770559 -54.4921875 177.24609375 C-56.1004541 178.17397705 -56.1004541 178.17397705 -57.74121094 179.12060547 C-61.01699566 181.00980166 -64.29355893 182.89764109 -67.5703125 184.78515625 C-68.65465576 185.41010986 -69.73899902 186.03506348 -70.85620117 186.67895508 C-73.0199346 187.92574001 -75.18415312 189.17168349 -77.34887695 190.41674805 C-82.82724521 193.57242484 -88.28739383 196.75494364 -93.72265625 199.984375 C-94.80853027 200.62689209 -95.8944043 201.26940918 -97.01318359 201.93139648 C-99.07087141 203.15078463 -101.12483881 204.37648161 -103.17431641 205.60961914 C-111.07652481 210.28398097 -118.73337787 213.85049581 -128.11010742 211.46264648 C-133.30852988 209.75619643 -137.79681103 207.62829777 -142.4375 204.75 C-143.92621775 203.85142896 -145.41586396 202.95439503 -146.90625 202.05859375 C-148.12054688 201.32552002 -148.12054688 201.32552002 -149.359375 200.57763672 C-154.3504023 197.59575632 -159.397474 194.71050558 -164.4375 191.8125 C-166.68624916 190.51701604 -168.93494643 189.22144197 -171.18359375 187.92578125 C-172.31265137 187.27561035 -173.44170898 186.62543945 -174.60498047 185.95556641 C-181.14253385 182.18986796 -187.67708253 178.41895325 -194.21044922 174.64599609 C-199.23957512 171.7424968 -204.27067116 168.84262756 -209.31021118 165.95724487 C-211.08432545 164.94122816 -212.85769919 163.92393072 -214.63085938 162.90625 C-216.84815314 161.63417708 -219.06681075 160.36447715 -221.28710938 159.09765625 C-238.15689971 149.40856161 -238.15689971 149.40856161 -244 143 C-242.7220314 139.1660942 -241.52549332 138.89363185 -238.03125 136.99609375 C-236.99258789 136.42479736 -235.95392578 135.85350098 -234.88378906 135.26489258 C-233.76713867 134.66185303 -232.65048828 134.05881348 -231.5 133.4375 C-229.21274314 132.18114015 -226.92628762 130.92332036 -224.640625 129.6640625 C-222.94776367 128.7344873 -222.94776367 128.7344873 -221.22070312 127.78613281 C-216.85493928 125.36497391 -212.54399342 122.85829406 -208.25 120.3125 C-207.57904297 119.91538818 -206.90808594 119.51827637 -206.21679688 119.10913086 C-203.53240213 117.51605223 -200.86397667 115.91296812 -198.234375 114.23046875 C-196 113 -196 113 -193 113 C-191.7109375 114.6171875 -191.7109375 114.6171875 -190.375 116.875 C-178.62448678 135.24957704 -160.06682872 146.95697536 -139 152 C-117.49041837 155.79876822 -95.1122471 152.02562528 -76.625 140.25 C-66.65274702 133.08546873 -55.00411714 124.01235143 -51 112 C-54.83951394 109.79174238 -58.68071881 107.58646298 -62.5234375 105.38378906 C-63.82727824 104.63588437 -65.13067395 103.88720322 -66.43359375 103.13769531 C-73.20317425 99.24414825 -79.95451086 95.38041146 -87 92 C-87.185625 92.680625 -87.37125 93.36125 -87.5625 94.0625 C-91.83297631 102.7891255 -100.43120182 107.16031069 -109 111 C-118.08784418 113.57315392 -130.26008149 113.4049095 -138.80078125 109.2578125 C-139.52652344 108.84273438 -140.25226563 108.42765625 -141 108 C-141.77730469 107.56429687 -142.55460937 107.12859375 -143.35546875 106.6796875 C-151.64411068 101.59820853 -157.24035025 94.92694089 -161 86 C-161.35835938 85.28714844 -161.71671875 84.57429688 -162.0859375 83.83984375 C-163.38815462 79.79406663 -163.32902672 75.97422967 -163.3125 71.75 C-163.32861328 70.94175781 -163.34472656 70.13351563 -163.36132812 69.30078125 C-163.36983909 58.66206886 -159.32812305 48.90103951 -152.18359375 40.98828125 C-143.04371475 32.47619192 -132.10121992 28.46084531 -119.7265625 28.6953125 C-108.0007557 29.65402626 -97.80008479 34.39060106 -89.984375 43.296875 C-88.57150107 45.15869952 -87.27584721 47.0441748 -86 49 C-70.41452564 40.53656855 -54.8774947 31.96492251 -39.625 22.91259766 C-32.90690365 18.92819477 -26.14227248 15.02505346 -19.375 11.125 C-17.70159546 10.16025757 -17.70159546 10.16025757 -15.99438477 9.17602539 C-10.66847793 6.10756349 -5.33957037 3.04462608 0 0 Z " fill="#015A9C" transform="translate(247,70)"/>
<path d="M0 0 C9.46833427 6.80894741 17.58106738 15.01641804 23.2265625 25.3203125 C23.2265625 25.9803125 23.2265625 26.6403125 23.2265625 27.3203125 C21.57333984 28.22910156 21.57333984 28.22910156 19.88671875 29.15625 C9.22659871 35.0364716 -1.31088169 41.09575398 -11.7734375 47.3203125 C-14.27774463 44.88556946 -16.63310155 42.50211758 -18.76953125 39.734375 C-25.57517641 31.53576153 -35.84931622 28.03938694 -46.12109375 26.97265625 C-58.22298793 26.44998308 -68.37197209 30.09592053 -77.546875 38.015625 C-87.04206737 47.84398201 -89.19639946 58.0926576 -89.13696289 71.23193359 C-88.9023963 81.95110565 -85.11688744 89.52817927 -77.7734375 97.3203125 C-67.07703355 106.94493249 -56.76290148 108.95181981 -42.75976562 108.45214844 C-38.70063934 108.1827374 -35.3806369 107.14805216 -31.7734375 105.3203125 C-30.94457031 104.90652344 -30.11570312 104.49273437 -29.26171875 104.06640625 C-22.84432229 100.54595109 -17.10979316 95.99302382 -13.7734375 89.3203125 C-9.71140033 89.91011864 -6.83797968 91.2204099 -3.31640625 93.3046875 C-2.28580078 93.91054687 -1.25519531 94.51640625 -0.19335938 95.140625 C0.87333984 95.77742188 1.94003906 96.41421875 3.0390625 97.0703125 C4.09416016 97.69164062 5.14925781 98.31296875 6.23632812 98.953125 C11.95166709 102.328914 17.61569809 105.77375888 23.2265625 109.3203125 C16.26351513 125.85755001 -0.18079995 138.43350324 -16.30053711 145.19433594 C-37.65813341 153.73115617 -60.38700695 153.76514788 -81.71484375 145.140625 C-102.80173399 136.05257109 -117.63346233 119.08243885 -126.7734375 98.3203125 C-134.17045238 79.51396255 -134.8620415 56.01969801 -126.91162109 37.29003906 C-123.17191123 28.85381368 -118.87274198 21.29094619 -112.7734375 14.3203125 C-112.25523438 13.6603125 -111.73703125 13.0003125 -111.203125 12.3203125 C-99.15184691 -2.58368359 -81.10171559 -10.72828041 -62.7734375 -14.6796875 C-61.96777344 -14.87046875 -61.16210938 -15.06125 -60.33203125 -15.2578125 C-39.36190091 -18.71548285 -17.228354 -11.78131426 0 0 Z " fill="#FDFDFE" transform="translate(173.7734375,72.6796875)"/>
<path d="M0 0 C1.2890625 1.6171875 1.2890625 1.6171875 2.625 3.875 C14.37551322 22.24957704 32.93317128 33.95697536 54 39 C75.50958163 42.79876822 97.8877529 39.02562528 116.375 27.25 C125.4432243 20.73496507 133.60951882 13.58346546 139.5 3.99609375 C142.04615675 0.6078487 142.04615675 0.6078487 145 0 C147.78330421 1.19819374 150.16872705 2.44998484 152.75 4 C153.51989258 4.44553223 154.28978516 4.89106445 155.08300781 5.35009766 C156.7886221 6.3399451 158.48989967 7.33729095 160.1875 8.34082031 C163.21850519 10.12890289 166.26407537 11.890229 169.3125 13.6484375 C187.18250461 23.98315794 187.18250461 23.98315794 193 28 C189.15801793 36.55032709 179.99208163 40.55353107 172.1875 44.9375 C170.44412455 45.92977694 168.70075558 46.92206552 166.95779419 47.91506958 C165.15852174 48.9389697 163.35747255 49.95968801 161.55615234 50.97998047 C156.01854162 54.12047609 150.5109924 57.31311209 145 60.5 C142.83608692 61.74895684 140.67202394 62.99765399 138.5078125 64.24609375 C136.8995459 65.17397705 136.8995459 65.17397705 135.25878906 66.12060547 C131.98300434 68.00980166 128.70644107 69.89764109 125.4296875 71.78515625 C124.34534424 72.41010986 123.26100098 73.03506348 122.14379883 73.67895508 C119.9800654 74.92574001 117.81584688 76.17168349 115.65112305 77.41674805 C110.17275479 80.57242484 104.71260617 83.75494364 99.27734375 86.984375 C98.19146973 87.62689209 97.1055957 88.26940918 95.98681641 88.93139648 C93.92912859 90.15078463 91.87516119 91.37648161 89.82568359 92.60961914 C81.92347519 97.28398097 74.26662213 100.85049581 64.88989258 98.46264648 C59.69147012 96.75619643 55.20318897 94.62829777 50.5625 91.75 C49.07378225 90.85142896 47.58413604 89.95439503 46.09375 89.05859375 C45.28421875 88.56987793 44.4746875 88.08116211 43.640625 87.57763672 C38.6495977 84.59575632 33.602526 81.71050558 28.5625 78.8125 C26.31375084 77.51701604 24.06505357 76.22144197 21.81640625 74.92578125 C20.68734863 74.27561035 19.55829102 73.62543945 18.39501953 72.95556641 C11.85746615 69.18986796 5.32291747 65.41895325 -1.21044922 61.64599609 C-6.23957512 58.7424968 -11.27067116 55.84262756 -16.31021118 52.95724487 C-18.08432545 51.94122816 -19.85769919 50.92393072 -21.63085938 49.90625 C-23.84815314 48.63417708 -26.06681075 47.36447715 -28.28710938 46.09765625 C-45.15689971 36.40856161 -45.15689971 36.40856161 -51 30 C-49.7220314 26.1660942 -48.52549332 25.89363185 -45.03125 23.99609375 C-43.99258789 23.42479736 -42.95392578 22.85350098 -41.88378906 22.26489258 C-40.20881348 21.36033325 -40.20881348 21.36033325 -38.5 20.4375 C-36.21274314 19.18114015 -33.92628762 17.92332036 -31.640625 16.6640625 C-30.51205078 16.0443457 -29.38347656 15.42462891 -28.22070312 14.78613281 C-23.85493928 12.36497391 -19.54399342 9.85829406 -15.25 7.3125 C-14.57904297 6.91538818 -13.90808594 6.51827637 -13.21679688 6.10913086 C-10.53240213 4.51605223 -7.86397667 2.91296812 -5.234375 1.23046875 C-3 0 -3 0 0 0 Z " fill="#004482" transform="translate(54,183)"/>
<path d="M0 0 C7.15012352 4.14340491 12.59064143 9.00456193 17 16 C14.22262654 18.98885268 11.56071009 21.01050908 7.984375 22.9609375 C6.99244141 23.50782227 6.00050781 24.05470703 4.97851562 24.61816406 C3.91310547 25.19791992 2.84769531 25.77767578 1.75 26.375 C-0.51662146 27.62580014 -2.782221 28.87845366 -5.046875 30.1328125 C-5.62453613 30.45221802 -6.20219727 30.77162354 -6.79736328 31.10070801 C-12.74835163 34.39847134 -18.62917868 37.81212739 -24.5 41.25 C-25.48734131 41.82685547 -26.47468262 42.40371094 -27.49194336 42.99804688 C-32.06716767 45.67637594 -36.63076489 48.37227096 -41.17578125 51.1015625 C-41.9646875 51.57303711 -42.75359375 52.04451172 -43.56640625 52.53027344 C-45.0191672 53.4000351 -46.46863664 54.27532872 -47.9140625 55.15722656 C-52.66572806 58 -52.66572806 58 -56 58 C-59.65928383 51.64526156 -60.40945481 45.62618299 -60.4375 38.4375 C-60.44716797 37.64690186 -60.45683594 36.85630371 -60.46679688 36.04174805 C-60.31897413 25.54307209 -56.22848333 15.79068584 -49.18359375 7.98828125 C-35.46149581 -4.79128875 -17.09267483 -7.64446261 0 0 Z " fill="#659AD2" transform="translate(144,103)"/>
<path d="M0 0 C0.89102417 0.4321582 0.89102417 0.4321582 1.80004883 0.87304688 C2.41662354 1.16630859 3.03319824 1.45957031 3.66845703 1.76171875 C4.30614014 2.11814453 4.94382324 2.47457031 5.60083008 2.84179688 C6.32415527 3.24414551 7.04748047 3.64649414 7.79272461 4.06103516 C8.5582666 4.49399902 9.32380859 4.92696289 10.11254883 5.37304688 C10.90129395 5.81503418 11.69003906 6.25702148 12.50268555 6.71240234 C20.02465899 10.9509627 27.43173552 15.37381131 34.80004883 19.87304688 C29.56998628 29.60612291 22.18295298 35.86772127 11.80004883 39.87304688 C1.51188833 42.61655634 -10.91058707 42.18596915 -20.19995117 36.87304688 C-20.97725586 36.43734375 -21.75456055 36.00164062 -22.55541992 35.55273438 C-28.66312108 31.80831457 -34.87477997 26.84856047 -37.19995117 19.87304688 C-28.48413086 14.89257812 -28.48413086 14.89257812 -19.76831055 9.91210938 C-19.13917252 9.55260193 -18.51003448 9.19309448 -17.86183167 8.82269287 C-14.97453817 7.17281087 -12.08724467 5.52292887 -9.19995117 3.87304688 C-8.59265167 3.48789917 -7.98535217 3.10275146 -7.35964966 2.70593262 C-2.74280752 -0.15827987 -2.74280752 -0.15827987 0 0 Z " fill="#014582" transform="translate(126.199951171875,141.126953125)"/>
<path d="M0 0 C2.97 0 5.94 0 9 0 C9 2.97 9 5.94 9 9 C11.97 9 14.94 9 18 9 C18 11.97 18 14.94 18 18 C15.03 18 12.06 18 9 18 C9 20.97 9 23.94 9 27 C6.03 27 3.06 27 0 27 C0 24.03 0 21.06 0 18 C-3.3 18 -6.6 18 -10 18 C-10 15.03 -10 12.06 -10 9 C-6.7 9 -3.4 9 0 9 C0 6.03 0 3.06 0 0 Z " fill="#FAFCFD" transform="translate(225,127)"/>
<path d="M0 0 C2.97 0 5.94 0 9 0 C9 2.97 9 5.94 9 9 C11.97 9 14.94 9 18 9 C18 11.97 18 14.94 18 18 C15.03 18 12.06 18 9 18 C9 20.97 9 23.94 9 27 C6.03 27 3.06 27 0 27 C0 24.03 0 21.06 0 18 C-2.97 18 -5.94 18 -9 18 C-9 15.03 -9 12.06 -9 9 C-6.03 9 -3.06 9 0 9 C0 6.03 0 3.06 0 0 Z " fill="#FEFEFE" transform="translate(190,127)"/>
</svg>
