<?xml version="1.0" encoding="UTF-8"?>
<svg version="1.1" xmlns="http://www.w3.org/2000/svg" width="330" height="322">
<path d="M0 0 C2.30267894 -0.00706744 4.60535323 -0.01581591 6.90802002 -0.02610779 C13.13127618 -0.04851938 19.35427701 -0.04568111 25.57755804 -0.03678632 C30.78606185 -0.03165879 35.99451842 -0.03898335 41.20301735 -0.04625839 C54.19856153 -0.06420003 67.19396411 -0.05787358 80.18950309 -0.04008859 C91.44333275 -0.02539868 102.69689523 -0.04001731 113.95069049 -0.06885875 C125.54174435 -0.09834038 137.13266441 -0.10869284 148.72375405 -0.09967655 C155.21701539 -0.09476271 161.71006924 -0.09687941 168.20330429 -0.11746407 C174.31191036 -0.13590415 180.42002259 -0.12976052 186.5286026 -0.10526466 C188.76054009 -0.10028314 190.99251575 -0.10367671 193.22442245 -0.11641312 C212.95221608 -0.22001818 228.77901198 2.69997815 243.78564453 16.65844727 C258.87235585 32.63738345 260.70273599 49.7131216 260.61572266 70.66259766 C260.6211522 72.8701473 260.6282795 75.07769331 260.63696289 77.28523254 C260.65509895 83.24385551 260.64816922 89.20219947 260.63544655 95.16082692 C260.62526963 101.41674974 260.63472508 107.67264978 260.64099121 113.92857361 C260.64871765 125.10139079 260.63634349 136.27410622 260.61595386 147.44689905 C260.59808166 157.55271513 260.60119486 167.65834737 260.61962891 177.76416016 C260.64109145 189.53554109 260.6489734 201.30683262 260.63717985 213.07823366 C260.63096425 219.29639784 260.63005608 225.51443571 260.64332581 231.73259163 C260.6549331 237.57933131 260.6467695 243.42572587 260.62374878 249.27242851 C260.61848796 251.4100627 260.61993007 253.54772625 260.62879944 255.68534851 C260.70491817 275.90445116 257.26294409 291.86506773 242.79345703 307.02563477 C231.37938973 317.64567999 217.13479885 322.68901369 201.76327515 322.67388916 C200.8193801 322.67686028 199.87548505 322.6798314 198.90298712 322.68289256 C195.73805015 322.69156863 192.57315105 322.6930869 189.40820312 322.69458008 C187.13962727 322.69920907 184.8710522 322.70423384 182.60247803 322.70962524 C176.43694319 322.72274451 170.27141924 322.72919343 164.10587263 322.7336359 C160.25253242 322.73656774 156.39919519 322.74067279 152.54585648 322.74514008 C141.86733527 322.7572481 131.18881768 322.7676301 120.51029015 322.77101517 C119.82724712 322.77123473 119.1442041 322.7714543 118.44046281 322.77168052 C117.41350673 322.77200794 117.41350673 322.77200794 116.36580408 322.77234197 C114.9785699 322.77278543 113.59133573 322.77323199 112.20410156 322.77368164 C111.51599186 322.77390307 110.82788215 322.7741245 110.11892064 322.77435264 C98.97834785 322.77829753 87.83784059 322.79574286 76.69729309 322.81904116 C65.24665941 322.84279367 53.7960733 322.85496119 42.3454119 322.85638309 C35.9215038 322.85743022 29.49768813 322.86331856 23.07380295 322.8812027 C17.02781859 322.89770715 10.9819959 322.89982724 4.93599701 322.89106369 C2.72172995 322.89029456 0.50745412 322.89461959 -1.70679092 322.90452194 C-23.18752341 322.99492175 -23.18752341 322.99492175 -31.90185547 319.53344727 C-32.54288523 319.29087315 -33.18391499 319.04829903 -33.84436989 318.79837418 C-47.72065976 313.13585722 -59.22292771 302.96355705 -65.40185547 289.18969727 C-68.65559438 280.98140137 -70.05067461 274.1781979 -70.05575562 265.41531372 C-70.06013787 264.4946587 -70.06452012 263.57400367 -70.06903517 262.62545002 C-70.08239461 259.5389535 -70.08859571 256.45248553 -70.09472656 253.3659668 C-70.10262998 251.15314099 -70.11089908 248.94031646 -70.11950684 246.72749329 C-70.14570616 239.45709459 -70.16103557 232.18669022 -70.17529297 224.91625977 C-70.1806541 222.41011425 -70.18603162 219.90396878 -70.19142532 217.39782333 C-70.21305379 206.96808723 -70.23193886 196.53835174 -70.24304771 186.10859871 C-70.24597706 183.4041862 -70.24893876 180.69977374 -70.25195312 177.99536133 C-70.25269918 177.32325394 -70.25344523 176.65114655 -70.25421388 175.95867227 C-70.26684729 165.08911253 -70.30004543 154.21971711 -70.34175496 143.35023405 C-70.38429924 132.17079978 -70.40735047 120.99142431 -70.41296828 109.81190383 C-70.41661274 103.5431659 -70.42853766 97.27470648 -70.46107101 91.0060463 C-70.49127669 85.10114385 -70.4974188 79.1966866 -70.48568726 73.29172325 C-70.48546755 71.13395078 -70.49368673 68.97615691 -70.51134109 66.81845665 C-70.66202681 47.32798947 -67.55079305 31.65419151 -53.77685547 16.84594727 C-37.72020884 1.66016961 -21.04850017 -0.0681657 0 0 Z " fill="#00005B" transform="translate(69.90185546875,-0.533447265625)"/>
<path d="M0 0 C1.12627808 -0.01606293 2.25255615 -0.03212585 3.41296387 -0.04867554 C8.63840924 -0.09331008 13.86376591 -0.1347439 19.08935547 -0.15722656 C21.82831359 -0.17041512 24.56649966 -0.19796667 27.30517578 -0.23925781 C46.72921202 -0.52553505 64.33481053 -0.5726349 80.74023438 11.19287109 C82.07054687 12.05912109 82.07054687 12.05912109 83.42773438 12.94287109 C91.49426848 20.79139077 97.60257538 31.45223981 98.04101562 42.82958984 C98.06056406 44.51307463 98.06393039 46.19681004 98.05273438 47.88037109 C98.04709473 48.76450684 98.04145508 49.64864258 98.03564453 50.55957031 C97.78172656 64.29879528 93.98781687 74.77226074 84.61523438 84.94287109 C71.2281268 97.6774978 53.77744628 99.37966267 36.24023438 99.25537109 C32.11523438 99.23474609 27.99023438 99.21412109 23.74023438 99.19287109 C23.74023438 114.37287109 23.74023438 129.55287109 23.74023438 145.19287109 C18.97585937 145.21349609 14.21148437 145.23412109 9.30273438 145.25537109 C7.79783447 145.2644751 6.29293457 145.2735791 4.74243164 145.28295898 C3.56737061 145.28545654 2.39230957 145.2879541 1.18164062 145.29052734 C-0.63291626 145.29838257 -0.63291626 145.29838257 -2.48413086 145.30639648 C-5.25976563 145.19287109 -5.25976563 145.19287109 -6.25976562 144.19287109 C-6.3584319 142.34756937 -6.38608718 140.49845021 -6.38674927 138.6505127 C-6.38956909 137.44735916 -6.39238892 136.24420563 -6.39529419 135.0045929 C-6.3933496 133.65914902 -6.39130141 132.31370529 -6.38916016 130.96826172 C-6.39051417 129.56088719 -6.3922941 128.15351302 -6.39447021 126.74613953 C-6.39904458 122.91360042 -6.39725498 119.08108811 -6.39409113 115.24854851 C-6.39156754 111.2464681 -6.39390506 107.24439006 -6.39547729 103.24230957 C-6.39729899 96.52025946 -6.39489267 89.79822032 -6.39013672 83.07617188 C-6.3846941 75.29348385 -6.38645675 67.51082202 -6.39196312 59.72813463 C-6.39649424 53.05808808 -6.39714481 46.38804944 -6.39452446 39.71800184 C-6.39296167 35.72901448 -6.39276794 31.74003944 -6.39606094 27.75105286 C-6.39893964 24.00171997 -6.396964 20.25242101 -6.39116669 16.50309181 C-6.38983908 15.12316253 -6.39023322 13.74323041 -6.39242935 12.36330223 C-6.3951408 10.48727899 -6.39114609 8.61124954 -6.38674927 6.73522949 C-6.38637224 5.68291893 -6.38599522 4.63060837 -6.38560677 3.54640961 C-6.15171708 -0.82790225 -3.85049266 0.04978615 0 0 Z " fill="#9797FD" transform="translate(84.259765625,81.80712890625)"/>
<path d="M0 0 C0 9.9 0 19.8 0 30 C-2.5575 30.2475 -5.115 30.495 -7.75 30.75 C-17.09440872 31.78168875 -27.06520954 33.11532173 -34 40 C-34.76149739 43.29739502 -34.76149739 43.29739502 -34.65942383 47.06347656 C-34.67514938 48.11773834 -34.67514938 48.11773834 -34.69119263 49.19329834 C-34.71992588 51.50952393 -34.713654 53.82425325 -34.70703125 56.140625 C-34.7201475 57.74918489 -34.73545151 59.35772832 -34.75285339 60.96624756 C-34.79272558 65.19462765 -34.80289519 69.42257713 -34.80688477 73.65112305 C-34.81621213 77.96806927 -34.85362309 82.28476204 -34.88867188 86.6015625 C-34.95327053 95.0677561 -34.98389573 103.53357511 -35 112 C-45.23 112 -55.46 112 -66 112 C-66.33 75.7 -66.66 39.4 -67 2 C-58.09 2 -49.18 2 -40 2 C-37.99706653 5.00440021 -37.50728374 6.70993945 -36.875 10.1875 C-36.70742187 11.08855469 -36.53984375 11.98960938 -36.3671875 12.91796875 C-36.24601562 13.60503906 -36.12484375 14.29210937 -36 15 C-35.58492187 14.57589844 -35.16984375 14.15179688 -34.7421875 13.71484375 C-24.7133383 4.16855424 -13.75196886 0 0 0 Z " fill="#9797FD" transform="translate(268,115)"/>
<path d="M0 0 C3.75375 -0.061875 7.5075 -0.12375 11.375 -0.1875 C13.11789307 -0.22846802 13.11789307 -0.22846802 14.89599609 -0.27026367 C24.30025757 -0.34447005 32.30024138 0.86777929 39.52734375 7.20703125 C45.00983262 13.88199781 44.67309582 20.76899966 44 29 C42.84041429 35.45730082 38.07244468 39.29631024 33 43 C30.625 44.3125 30.625 44.3125 28 45 C27.37480469 45.18175781 26.74960938 45.36351562 26.10546875 45.55078125 C17.17202701 47.78794639 9.71551868 47 0 47 C0 31.49 0 15.98 0 0 Z " fill="#02025E" transform="translate(108,109)"/>
</svg>
